<mxfile host="app.diagrams.net" agent="Mozilla/5.0 (Windows NT 10.0; Win64; x64) AppleWebKit/537.36 (KHTML, like Gecko) Chrome/131.0.0.0 Safari/537.36" version="24.9.2">
  <diagram name="Seite-1" id="gJsIBYDGqS8oT-TaSScV">
    <mxGraphModel dx="2418" dy="634" grid="1" gridSize="10" guides="1" tooltips="1" connect="1" arrows="1" fold="1" page="1" pageScale="1" pageWidth="827" pageHeight="1169" math="0" shadow="0">
      <root>
        <mxCell id="0" />
        <mxCell id="1" parent="0" />
        <mxCell id="9nv9T6_BUz3yetUgY7wj-81" style="edgeStyle=orthogonalEdgeStyle;rounded=0;orthogonalLoop=1;jettySize=auto;html=1;" edge="1" parent="1" source="9nv9T6_BUz3yetUgY7wj-37" target="9nv9T6_BUz3yetUgY7wj-53">
          <mxGeometry relative="1" as="geometry" />
        </mxCell>
        <mxCell id="9nv9T6_BUz3yetUgY7wj-134" style="edgeStyle=orthogonalEdgeStyle;rounded=0;orthogonalLoop=1;jettySize=auto;html=1;entryX=0.5;entryY=0;entryDx=0;entryDy=0;" edge="1" parent="1" source="9nv9T6_BUz3yetUgY7wj-37" target="9nv9T6_BUz3yetUgY7wj-132">
          <mxGeometry relative="1" as="geometry">
            <Array as="points">
              <mxPoint x="630" y="67" />
              <mxPoint x="630" y="140" />
              <mxPoint x="770" y="140" />
            </Array>
          </mxGeometry>
        </mxCell>
        <mxCell id="9nv9T6_BUz3yetUgY7wj-37" value="Web App (FE+BE) zum Prozessmanagement&lt;div&gt;&lt;div&gt;und Clearing&lt;/div&gt;&lt;/div&gt;" style="image;aspect=fixed;html=1;points=[];align=center;fontSize=12;image=img/lib/azure2/app_services/App_Services.svg;" vertex="1" parent="1">
          <mxGeometry x="390" y="35" width="64" height="64" as="geometry" />
        </mxCell>
        <mxCell id="9nv9T6_BUz3yetUgY7wj-39" value="Storage Account mit zu&amp;nbsp;&lt;div&gt;prüfenden/importierenden Daten&lt;/div&gt;&lt;div&gt;&lt;br&gt;&lt;/div&gt;" style="image;aspect=fixed;html=1;points=[];align=center;fontSize=12;image=img/lib/azure2/storage/Storage_Accounts.svg;" vertex="1" parent="1">
          <mxGeometry x="40" y="35" width="65" height="52" as="geometry" />
        </mxCell>
        <mxCell id="9nv9T6_BUz3yetUgY7wj-40" value="DSD Zieldatenbank&lt;div&gt;&lt;br&gt;&lt;/div&gt;" style="image;aspect=fixed;html=1;points=[];align=center;fontSize=12;image=img/lib/azure2/databases/Azure_Database_PostgreSQL_Server.svg;" vertex="1" parent="1">
          <mxGeometry x="730" y="35" width="48" height="64" as="geometry" />
        </mxCell>
        <mxCell id="9nv9T6_BUz3yetUgY7wj-41" style="edgeStyle=orthogonalEdgeStyle;rounded=0;orthogonalLoop=1;jettySize=auto;html=1;entryX=0.908;entryY=0.501;entryDx=0;entryDy=0;entryPerimeter=0;" edge="1" parent="1" source="9nv9T6_BUz3yetUgY7wj-37" target="9nv9T6_BUz3yetUgY7wj-39">
          <mxGeometry relative="1" as="geometry" />
        </mxCell>
        <mxCell id="9nv9T6_BUz3yetUgY7wj-42" value="Upload von zu prüfenden Daten" style="edgeLabel;html=1;align=center;verticalAlign=middle;resizable=0;points=[];" vertex="1" connectable="0" parent="9nv9T6_BUz3yetUgY7wj-41">
          <mxGeometry x="-0.0851" y="2" relative="1" as="geometry">
            <mxPoint as="offset" />
          </mxGeometry>
        </mxCell>
        <mxCell id="9nv9T6_BUz3yetUgY7wj-106" style="edgeStyle=orthogonalEdgeStyle;rounded=0;orthogonalLoop=1;jettySize=auto;html=1;" edge="1" parent="1" source="9nv9T6_BUz3yetUgY7wj-52">
          <mxGeometry relative="1" as="geometry">
            <mxPoint x="1050.8334350585938" y="280" as="targetPoint" />
          </mxGeometry>
        </mxCell>
        <mxCell id="9nv9T6_BUz3yetUgY7wj-111" style="edgeStyle=orthogonalEdgeStyle;rounded=0;orthogonalLoop=1;jettySize=auto;html=1;" edge="1" parent="1" source="9nv9T6_BUz3yetUgY7wj-52">
          <mxGeometry relative="1" as="geometry">
            <mxPoint x="-160" y="260" as="targetPoint" />
          </mxGeometry>
        </mxCell>
        <mxCell id="9nv9T6_BUz3yetUgY7wj-52" value="" style="verticalLabelPosition=bottom;verticalAlign=top;html=1;shape=mxgraph.basic.rect;fillColor2=none;strokeWidth=1;size=20;indent=5;" vertex="1" parent="1">
          <mxGeometry x="-110" y="445" width="1100" height="140" as="geometry" />
        </mxCell>
        <mxCell id="9nv9T6_BUz3yetUgY7wj-70" value="&lt;span style=&quot;font-size: 14px;&quot;&gt;3. Semantische Prüfung&lt;/span&gt;" style="text;html=1;align=center;verticalAlign=middle;whiteSpace=wrap;rounded=0;" vertex="1" parent="1">
          <mxGeometry x="262" y="500" width="140" height="30" as="geometry" />
        </mxCell>
        <mxCell id="9nv9T6_BUz3yetUgY7wj-74" value="&lt;font style=&quot;font-size: 14px;&quot;&gt;1. Syntaktische Prüfung&lt;/font&gt;" style="text;html=1;align=center;verticalAlign=middle;whiteSpace=wrap;rounded=0;border=2px solid black;" vertex="1" parent="1">
          <mxGeometry x="-110" y="500" width="140" height="30" as="geometry" />
        </mxCell>
        <mxCell id="9nv9T6_BUz3yetUgY7wj-83" style="edgeStyle=orthogonalEdgeStyle;rounded=0;orthogonalLoop=1;jettySize=auto;html=1;" edge="1" parent="1" source="9nv9T6_BUz3yetUgY7wj-53" target="9nv9T6_BUz3yetUgY7wj-37">
          <mxGeometry relative="1" as="geometry" />
        </mxCell>
        <mxCell id="9nv9T6_BUz3yetUgY7wj-53" value="" style="image;aspect=fixed;html=1;points=[];align=center;fontSize=12;image=img/lib/azure2/compute/Function_Apps.svg;" vertex="1" parent="1">
          <mxGeometry x="388" y="385" width="68" height="60" as="geometry" />
        </mxCell>
        <mxCell id="9nv9T6_BUz3yetUgY7wj-85" value="auslösender http trigger&amp;nbsp;" style="rounded=0;whiteSpace=wrap;html=1;" vertex="1" parent="1">
          <mxGeometry x="364.75" y="300" width="120" height="40" as="geometry" />
        </mxCell>
        <mxCell id="9nv9T6_BUz3yetUgY7wj-135" value="" style="edgeStyle=orthogonalEdgeStyle;rounded=0;orthogonalLoop=1;jettySize=auto;html=1;" edge="1" parent="1" source="9nv9T6_BUz3yetUgY7wj-88" target="9nv9T6_BUz3yetUgY7wj-37">
          <mxGeometry relative="1" as="geometry" />
        </mxCell>
        <mxCell id="9nv9T6_BUz3yetUgY7wj-88" value="Erfolgsmeldung des jeweiligen Prüfungsschrittes" style="rounded=0;whiteSpace=wrap;html=1;" vertex="1" parent="1">
          <mxGeometry x="362" y="150" width="120" height="50" as="geometry" />
        </mxCell>
        <mxCell id="9nv9T6_BUz3yetUgY7wj-89" value="&lt;font style=&quot;font-size: 14px;&quot;&gt;2. Datenanreicherung&lt;/font&gt;" style="text;html=1;align=center;verticalAlign=middle;whiteSpace=wrap;rounded=0;" vertex="1" parent="1">
          <mxGeometry x="68" y="500" width="140" height="30" as="geometry" />
        </mxCell>
        <mxCell id="9nv9T6_BUz3yetUgY7wj-91" value="&lt;span style=&quot;font-size: 14px;&quot;&gt;4. Datenabgleich&lt;/span&gt;" style="text;html=1;align=center;verticalAlign=middle;whiteSpace=wrap;rounded=0;" vertex="1" parent="1">
          <mxGeometry x="446" y="500" width="140" height="30" as="geometry" />
        </mxCell>
        <mxCell id="9nv9T6_BUz3yetUgY7wj-92" value="&lt;span style=&quot;font-size: 14px;&quot;&gt;7&lt;/span&gt;&lt;span style=&quot;font-size: 14px; background-color: initial;&quot;&gt;. Datenbereitstellung&lt;/span&gt;" style="text;html=1;align=center;verticalAlign=middle;whiteSpace=wrap;rounded=0;" vertex="1" parent="1">
          <mxGeometry x="840" y="500" width="140" height="30" as="geometry" />
        </mxCell>
        <mxCell id="9nv9T6_BUz3yetUgY7wj-98" value="" style="endArrow=none;html=1;rounded=0;" edge="1" parent="1" source="9nv9T6_BUz3yetUgY7wj-52">
          <mxGeometry width="50" height="50" relative="1" as="geometry">
            <mxPoint x="750" y="495" as="sourcePoint" />
            <mxPoint x="800" y="445" as="targetPoint" />
          </mxGeometry>
        </mxCell>
        <mxCell id="9nv9T6_BUz3yetUgY7wj-100" value="" style="endArrow=none;html=1;rounded=0;exitX=0.856;exitY=0.994;exitDx=0;exitDy=0;exitPerimeter=0;" edge="1" parent="1" source="9nv9T6_BUz3yetUgY7wj-52">
          <mxGeometry width="50" height="50" relative="1" as="geometry">
            <mxPoint x="780" y="495" as="sourcePoint" />
            <mxPoint x="830" y="445" as="targetPoint" />
          </mxGeometry>
        </mxCell>
        <mxCell id="9nv9T6_BUz3yetUgY7wj-130" style="edgeStyle=orthogonalEdgeStyle;rounded=0;orthogonalLoop=1;jettySize=auto;html=1;entryX=0.5;entryY=1;entryDx=0;entryDy=0;" edge="1" parent="1" source="9nv9T6_BUz3yetUgY7wj-101" target="9nv9T6_BUz3yetUgY7wj-122">
          <mxGeometry relative="1" as="geometry">
            <Array as="points">
              <mxPoint x="700" y="440" />
              <mxPoint x="580" y="440" />
            </Array>
          </mxGeometry>
        </mxCell>
        <mxCell id="9nv9T6_BUz3yetUgY7wj-101" value="&lt;span style=&quot;font-size: 14px;&quot;&gt;5. Datenabgleich&lt;/span&gt;" style="text;html=1;align=center;verticalAlign=middle;whiteSpace=wrap;rounded=0;" vertex="1" parent="1">
          <mxGeometry x="630" y="500" width="140" height="30" as="geometry" />
        </mxCell>
        <mxCell id="9nv9T6_BUz3yetUgY7wj-107" value="Schreiben in die Datenbank" style="rounded=0;whiteSpace=wrap;html=1;" vertex="1" parent="1">
          <mxGeometry x="990" y="240" width="120" height="40" as="geometry" />
        </mxCell>
        <mxCell id="9nv9T6_BUz3yetUgY7wj-109" style="edgeStyle=orthogonalEdgeStyle;rounded=0;orthogonalLoop=1;jettySize=auto;html=1;entryX=1.007;entryY=0.625;entryDx=0;entryDy=0;entryPerimeter=0;" edge="1" parent="1" source="9nv9T6_BUz3yetUgY7wj-107" target="9nv9T6_BUz3yetUgY7wj-40">
          <mxGeometry relative="1" as="geometry" />
        </mxCell>
        <mxCell id="9nv9T6_BUz3yetUgY7wj-112" value="Schrreiben der Zwischenergebnisse" style="rounded=0;whiteSpace=wrap;html=1;" vertex="1" parent="1">
          <mxGeometry x="-220" y="220" width="120" height="40" as="geometry" />
        </mxCell>
        <mxCell id="9nv9T6_BUz3yetUgY7wj-113" style="edgeStyle=orthogonalEdgeStyle;rounded=0;orthogonalLoop=1;jettySize=auto;html=1;entryX=0.013;entryY=0.609;entryDx=0;entryDy=0;entryPerimeter=0;" edge="1" parent="1" source="9nv9T6_BUz3yetUgY7wj-112" target="9nv9T6_BUz3yetUgY7wj-39">
          <mxGeometry relative="1" as="geometry" />
        </mxCell>
        <mxCell id="9nv9T6_BUz3yetUgY7wj-122" value="6. Manuelles Clearing in Web App" style="rounded=0;whiteSpace=wrap;html=1;" vertex="1" parent="1">
          <mxGeometry x="520" y="250" width="120" height="40" as="geometry" />
        </mxCell>
        <mxCell id="9nv9T6_BUz3yetUgY7wj-131" style="edgeStyle=orthogonalEdgeStyle;rounded=0;orthogonalLoop=1;jettySize=auto;html=1;entryX=0.997;entryY=0.54;entryDx=0;entryDy=0;entryPerimeter=0;" edge="1" parent="1" source="9nv9T6_BUz3yetUgY7wj-122" target="9nv9T6_BUz3yetUgY7wj-37">
          <mxGeometry relative="1" as="geometry">
            <Array as="points">
              <mxPoint x="580" y="70" />
            </Array>
          </mxGeometry>
        </mxCell>
        <mxCell id="9nv9T6_BUz3yetUgY7wj-136" style="edgeStyle=orthogonalEdgeStyle;rounded=0;orthogonalLoop=1;jettySize=auto;html=1;entryX=0.5;entryY=0;entryDx=0;entryDy=0;" edge="1" parent="1" source="9nv9T6_BUz3yetUgY7wj-132" target="9nv9T6_BUz3yetUgY7wj-92">
          <mxGeometry relative="1" as="geometry" />
        </mxCell>
        <mxCell id="9nv9T6_BUz3yetUgY7wj-132" value="Finaler manueller Trigger zur Datenbereitstellung" style="rounded=0;whiteSpace=wrap;html=1;" vertex="1" parent="1">
          <mxGeometry x="710" y="260" width="120" height="70" as="geometry" />
        </mxCell>
      </root>
    </mxGraphModel>
  </diagram>
</mxfile>
